<svg width="25" height="31" viewBox="0 0 25 31" fill="none" xmlns="http://www.w3.org/2000/svg">
<path d="M12.3333 30.917C14.0292 30.917 15.4167 29.5295 15.4167 27.8337H9.25C9.25 29.5295 10.6375 30.917 12.3333 30.917ZM21.5833 21.667V13.9587C21.5833 9.22574 19.0704 5.26366 14.6458 4.21533V3.16699C14.6458 1.88741 13.6129 0.854492 12.3333 0.854492C11.0537 0.854492 10.0208 1.88741 10.0208 3.16699V4.21533C5.61167 5.26366 3.08333 9.21033 3.08333 13.9587V21.667L0 24.7503V26.292H24.6667V24.7503L21.5833 21.667ZM18.5 23.2087H6.16667V13.9587C6.16667 10.1353 8.49458 7.02116 12.3333 7.02116C16.1721 7.02116 18.5 10.1353 18.5 13.9587V23.2087Z" fill="#041C3F"/>
</svg>
