<svg width="28" height="29" viewBox="0 0 28 29" fill="none" xmlns="http://www.w3.org/2000/svg">
<path d="M20.2143 15.875C21.2455 15.875 22.153 15.3113 22.6205 14.4588L27.543 5.535C28.0518 4.6275 27.3918 3.5 26.3468 3.5H5.99676L4.70426 0.75H0.208008V3.5H2.95801L7.90801 13.9363L6.05176 17.2913C5.04801 19.1337 6.36801 21.375 8.45801 21.375H24.958V18.625H8.45801L9.97051 15.875H20.2143ZM7.30301 6.25H24.0093L20.2143 13.125H10.5618L7.30301 6.25ZM8.45801 22.75C6.94551 22.75 5.72176 23.9875 5.72176 25.5C5.72176 27.0125 6.94551 28.25 8.45801 28.25C9.97051 28.25 11.208 27.0125 11.208 25.5C11.208 23.9875 9.97051 22.75 8.45801 22.75ZM22.208 22.75C20.6955 22.75 19.4718 23.9875 19.4718 25.5C19.4718 27.0125 20.6955 28.25 22.208 28.25C23.7205 28.25 24.958 27.0125 24.958 25.5C24.958 23.9875 23.7205 22.75 22.208 22.75Z" fill="#041C3F"/>
</svg>
