<svg width="22" height="16" viewBox="0 0 22 16" fill="none" xmlns="http://www.w3.org/2000/svg">
<path d="M21.1449 6.44658L14.0487 1.12438C13.7825 0.922138 13.4206 0.890205 13.1208 1.041C12.8192 1.1918 12.6294 1.49871 12.6294 1.83401V4.49511H9.9683C4.58756 4.49511 0.210938 8.87173 0.210938 14.2525C0.210938 14.6641 0.494789 15.0224 0.893953 15.1164C0.961368 15.1324 1.03056 15.1395 1.09797 15.1395C1.42795 15.1395 1.73841 14.955 1.89098 14.6499L2.10032 14.233C3.46103 11.5098 6.19664 9.81731 9.24094 9.81731H12.6294V12.4784C12.6294 12.8137 12.8192 13.1206 13.119 13.2714C13.4189 13.4222 13.7808 13.3903 14.0487 13.188L21.1449 7.86583C21.3685 7.69907 21.4997 7.43474 21.4997 7.15621C21.4997 6.87768 21.3685 6.61334 21.1449 6.44658Z" fill="#041C3F"/>
</svg>
