<svg width="38" height="39" viewBox="0 0 38 39" fill="none" xmlns="http://www.w3.org/2000/svg">
<path d="M18.9997 7.89453C11.083 7.89453 4.32217 12.8187 1.58301 19.7695C4.32217 26.7204 11.083 31.6445 18.9997 31.6445C26.9163 31.6445 33.6772 26.7204 36.4163 19.7695C33.6772 12.8187 26.9163 7.89453 18.9997 7.89453ZM18.9997 27.6862C14.6297 27.6862 11.083 24.1395 11.083 19.7695C11.083 15.3995 14.6297 11.8529 18.9997 11.8529C23.3697 11.8529 26.9163 15.3995 26.9163 19.7695C26.9163 24.1395 23.3697 27.6862 18.9997 27.6862ZM18.9997 15.0195C16.3713 15.0195 14.2497 17.1412 14.2497 19.7695C14.2497 22.3979 16.3713 24.5195 18.9997 24.5195C21.628 24.5195 23.7497 22.3979 23.7497 19.7695C23.7497 17.1412 21.628 15.0195 18.9997 15.0195Z" fill="#C4C4C4"/>
<path fill-rule="evenodd" clip-rule="evenodd" d="M33.9981 7.89377L7.12808 34.7638L5.71387 33.3496L32.5839 6.47955L33.9981 7.89377Z" fill="white"/>
<path fill-rule="evenodd" clip-rule="evenodd" d="M33.1417 7.0422L6.27164 33.9123L4.85742 32.498L31.7275 5.62799L33.1417 7.0422Z" fill="#C4C4C4"/>
</svg>
