<svg width="60" height="60" viewBox="0 0 60 60" fill="none" xmlns="http://www.w3.org/2000/svg">
<rect width="60" height="60" rx="5" transform="matrix(-1 0 0 1 60 0)" fill="#041C3F"/>
<path d="M37.9312 15.2398C37.0053 16.1309 36.1241 17.0278 35.1789 17.8492C35.0084 17.9964 34.5417 17.9208 34.2666 17.8104C26.186 14.5773 17.2649 18.8042 14.7063 27.0951C11.8455 36.3624 18.7872 45.8408 28.5025 45.9319C38.9964 46.0287 46.1609 35.4868 42.1729 25.7914C41.9385 25.2238 41.9831 24.8926 42.4363 24.4742C43.2382 23.7342 43.9664 22.9167 44.7412 22.1147C48.4309 27.5775 48.764 37.8404 41.6906 44.7076C34.5049 51.6813 23.1316 51.7782 15.8665 44.9168C8.56645 38.0206 7.99314 26.6651 14.6308 19.0424C21.3497 11.3249 31.9114 11.3694 37.9312 15.2398Z" fill="white"/>
<path d="M39.097 27.8351C40.8867 32.1259 38.9692 37.7572 34.8572 40.5176C30.4373 43.4834 24.6151 42.91 20.8383 39.1383C17.135 35.4365 16.5578 29.534 19.4767 25.1832C22.2444 21.0551 27.8284 19.1354 32.2018 20.9408C31.1966 21.923 30.2553 22.8741 29.2713 23.7768C29.0912 23.9415 28.7387 23.957 28.4617 23.9705C24.6849 24.1468 21.5452 27.1281 21.3554 30.7331C21.1424 34.803 23.7397 38.0206 27.7432 38.6444C31.276 39.1965 34.8243 36.7808 35.7947 33.1642C35.8024 33.1332 35.8295 33.1022 35.8276 33.0732C35.6029 30.5471 37.6173 29.4294 39.097 27.8351Z" fill="white"/>
<path d="M45.4781 10C45.6466 11.1972 45.8326 12.2684 45.9333 13.3474C45.9836 13.8898 46.2161 14.0409 46.7158 14.0893C47.7714 14.192 48.8211 14.3605 49.9968 14.5193C49.7586 14.7944 49.592 15.0153 49.4003 15.209C48.2401 16.379 47.0663 17.5316 45.9139 18.7094C45.2128 19.4261 44.5872 20.2223 43.3766 19.7419C43.1829 19.6663 42.7762 19.9085 42.5728 20.1099C39.2957 23.3624 36.0263 26.6245 32.7898 29.9157C32.5496 30.1598 32.4528 30.6499 32.4663 31.0199C32.5554 33.2476 31.0756 34.9833 28.8812 35.1596C26.9443 35.3145 25.0869 33.728 24.87 31.7308C24.6453 29.6678 26.1425 27.5757 28.2846 27.6164C29.8264 27.6454 30.5256 26.8163 31.3836 25.964C34.1746 23.1842 36.9482 20.385 39.7489 17.6149C40.1769 17.1907 40.4287 16.809 40.2176 16.1814C40.0297 15.6235 40.1905 15.1605 40.6534 14.7189C42.1022 13.3377 43.4967 11.9003 44.9145 10.4882C45.0636 10.3371 45.2321 10.2111 45.4781 10Z" fill="white"/>
</svg>
