<svg width="32" height="30" viewBox="0 0 32 30" fill="none" xmlns="http://www.w3.org/2000/svg">
<path d="M20.8021 17.9123H19.7817L19.42 17.586C20.6858 16.2085 21.4479 14.4202 21.4479 12.4748C21.4479 8.13686 17.6892 4.62061 13.0521 4.62061C8.415 4.62061 4.65625 8.13686 4.65625 12.4748C4.65625 16.8127 8.415 20.3289 13.0521 20.3289C15.1317 20.3289 17.0433 19.616 18.5158 18.4319L18.8646 18.7702V19.7248L25.3229 25.7544L27.2475 23.9539L20.8021 17.9123ZM13.0521 17.9123C9.83583 17.9123 7.23958 15.4835 7.23958 12.4748C7.23958 9.46602 9.83583 7.03727 13.0521 7.03727C16.2683 7.03727 18.8646 9.46602 18.8646 12.4748C18.8646 15.4835 16.2683 17.9123 13.0521 17.9123Z" fill="#4BA4F0"/>
</svg>
