<svg width="60" height="60" viewBox="0 0 60 60" fill="none" xmlns="http://www.w3.org/2000/svg">
<rect width="60" height="60" rx="5" transform="matrix(-1 0 0 1 60 0)" fill="#041C3F"/>
<path d="M30 18.1333C37.9245 18.1333 44.9918 22.5353 48.4418 29.5C44.9918 36.4647 37.9455 40.8667 30 40.8667C22.0545 40.8667 15.0082 36.4647 11.5582 29.5C15.0082 22.5353 22.0755 18.1333 30 18.1333ZM30 14C19.5455 14 10.6173 20.4273 7 29.5C10.6173 38.5727 19.5455 45 30 45C40.4545 45 49.3827 38.5727 53 29.5C49.3827 20.4273 40.4545 14 30 14ZM30 24.3333C32.8855 24.3333 35.2273 26.648 35.2273 29.5C35.2273 32.352 32.8855 34.6667 30 34.6667C27.1145 34.6667 24.7727 32.352 24.7727 29.5C24.7727 26.648 27.1145 24.3333 30 24.3333ZM30 20.2C24.8145 20.2 20.5909 24.3747 20.5909 29.5C20.5909 34.6253 24.8145 38.8 30 38.8C35.1855 38.8 39.4091 34.6253 39.4091 29.5C39.4091 24.3747 35.1855 20.2 30 20.2Z" fill="white"/>
</svg>
