<svg width="60" height="60" viewBox="0 0 60 60" fill="none" xmlns="http://www.w3.org/2000/svg">
<rect width="60" height="60" rx="5" transform="matrix(-1 0 0 1 60 0)" fill="#4BA4F0"/>
<path d="M20.724 19.3584H39.2932L29.99 31.0569L20.724 19.3584ZM15.6175 18.6342C19.3685 23.4436 26.2948 32.3567 26.2948 32.3567V43.4982C26.2948 44.5195 27.1304 45.3551 28.1517 45.3551H31.8655C32.8868 45.3551 33.7224 44.5195 33.7224 43.4982V32.3567C33.7224 32.3567 40.6301 23.4436 44.3811 18.6342C45.3281 17.4086 44.4554 15.6445 42.9142 15.6445H17.0845C15.5433 15.6445 14.6705 17.4086 15.6175 18.6342Z" fill="white"/>
</svg>
