<svg width="147" height="49" viewBox="0 0 147 49" fill="none" xmlns="http://www.w3.org/2000/svg">
<path d="M29.03 22.77C19.52 22.77 10 22.77 0.49 22.77C0.28 22.77 0.08 22.74 0 22.74C7.55 15.17 15.14 7.58 22.72 0C22.72 3.6 22.72 7.25 22.72 10.97H22.37H22.28C16.54 11.38 14.32 15.6 14.11 16.03H17.27C17.32 15.97 17.37 15.92 17.43 15.86C17.48 15.81 17.52 15.76 17.57 15.71C17.62 15.66 17.68 15.6 17.74 15.55C18.04 15.27 18.39 14.99 18.81 14.73C18.85 14.71 18.88 14.68 18.92 14.66C19.1 14.55 19.29 14.44 19.5 14.34C19.55 14.31 19.6 14.29 19.66 14.26C19.87 14.17 20.08 14.08 20.31 14C20.5 13.93 20.7 13.87 20.91 13.82C20.92 13.82 20.94 13.81 20.95 13.81C21.46 13.67 21.99 13.56 22.6 13.52H29.66C29.79 13.53 29.92 13.55 30.05 13.57C32.75 13.99 34.49 16.3 34 19.04C33.6 21.28 31.64 22.77 29.03 22.77ZM25.53 37.27V48.07C33.1 40.5 40.68 32.92 48.24 25.36C48.17 25.36 47.99 25.36 47.8 25.36C38.24 25.36 28.67 25.36 19.11 25.36C15.79 25.36 13.58 27.92 14.23 31.09C14.61 32.95 16.6 34.48 18.5 34.56C19.29 34.59 20.08 34.61 20.87 34.6H32.54L29.9 37.25L25.53 37.27Z" fill="url(#paint0_linear_3939_9615)"/>
<path d="M72.6909 31.0399L61.4709 31.0499V27.3999C61.4709 26.5599 62.1609 25.8699 63.0009 25.8699H71.1609C74.5309 25.8699 77.2809 23.1299 77.2809 19.7499V18.0399C77.2809 14.6699 74.5409 11.9199 71.1609 11.9199H63.0009C59.6309 11.9199 56.8809 14.6599 56.8809 18.0399V18.0899H61.4709V18.0399C61.4709 17.1999 62.1609 16.5099 63.0009 16.5099H71.1609C72.0009 16.5099 72.6909 17.1999 72.6909 18.0399V19.7499C72.6909 20.5899 72.0009 21.2799 71.1609 21.2799H63.0009C59.6309 21.2799 56.8809 24.0199 56.8809 27.3999V35.6299H77.2709V31.0399H72.6909Z" fill="#041C3F"/>
<path d="M95.6301 12.6191H100.22V30.7391C100.22 33.7191 97.8001 36.1391 94.8201 36.1391H85.2301C82.2501 36.1391 79.8301 33.7191 79.8301 30.7391V12.6191H84.4201V30.7391C84.4201 31.1891 84.7901 31.5591 85.2401 31.5591H94.8301C95.2801 31.5591 95.6501 31.1891 95.6501 30.7391V12.6191H95.6301Z" fill="#041C3F"/>
<path d="M117.762 21.8296H108.172C107.722 21.8296 107.352 21.4596 107.352 21.0096V17.5096C107.352 17.0596 107.722 16.6896 108.172 16.6896H117.762C117.772 16.6896 117.782 16.6896 117.782 16.6896H123.092C122.702 14.0896 120.462 12.0996 117.752 12.0996H108.162C105.182 12.0996 102.762 14.5196 102.762 17.4996V20.9996C102.762 23.9796 105.182 26.4096 108.162 26.4096H117.752C118.202 26.4096 118.572 26.7796 118.572 27.2296V30.7296C118.572 31.1796 118.202 31.5496 117.752 31.5496H108.162C108.142 31.5496 108.132 31.5396 108.112 31.5396H102.822C103.212 34.1396 105.452 36.1396 108.162 36.1396H117.752C120.732 36.1396 123.152 33.7196 123.152 30.7396V27.2396C123.162 24.2496 120.742 21.8296 117.762 21.8296Z" fill="#041C3F"/>
<path d="M140.751 31.5398C140.731 31.5398 140.721 31.5498 140.701 31.5498H131.111C130.661 31.5498 130.291 31.1798 130.291 30.7298V27.2298C130.291 26.7798 130.661 26.4098 131.101 26.4098L140.691 26.3998C143.671 26.3998 146.091 23.9698 146.091 20.9998V17.4898C146.091 14.5098 143.671 12.0898 140.691 12.0898H131.101C128.121 12.0898 125.701 14.5098 125.701 17.4898V30.7198C125.701 33.6998 128.121 36.1198 131.101 36.1198H140.691C143.401 36.1198 145.641 34.1198 146.031 31.5198H140.751V31.5398ZM130.301 17.5098C130.301 17.0598 130.671 16.6898 131.121 16.6898H140.711C141.161 16.6898 141.531 17.0598 141.531 17.5098V21.0198C141.531 21.4698 141.161 21.8398 140.711 21.8398H131.121C130.841 21.8398 130.571 21.8598 130.311 21.8998V17.5098H130.301Z" fill="#041C3F"/>
<defs>
<linearGradient id="paint0_linear_3939_9615" x1="36.8332" y1="36.7644" x2="11.3939" y2="11.325" gradientUnits="userSpaceOnUse">
<stop stopColor="#041C3F"/>
<stop offset="0.2414" stopColor="#55B4DF"/>
<stop offset="1" stopColor="#71E4AC"/>
</linearGradient>
</defs>
</svg>
